HIERARCHY
ROOT pelvis
{
  OFFSET 0 100 0
  CHANNELS 6 Xposition Yposition Zposition Zrotation Xrotation Yrotation
  JOINT pelvis_right_femur
  {
    OFFSET -10.78128 -3.44521 -0.5502486
    CHANNELS 3 Zrotation Xrotation Yrotation
    JOINT right_femur_tibia
    {
      OFFSET -0.8047443 -44.0398 -0.1307829
      CHANNELS 3 Zrotation Xrotation Yrotation
      JOINT right_tibia_foot
      {
        OFFSET 3.006224 -47.83518 -5
        CHANNELS 3 Zrotation Xrotation Yrotation
        End Site
        {
          OFFSET 0 -5 15
        }
      }
    }
  }
  JOINT pelvis_left_femur
  {
    OFFSET 10.78128 -3.44521 -0.5502486
    CHANNELS 3 Zrotation Xrotation Yrotation
    JOINT left_femur_tibia
    {
      OFFSET 0.8047443 -44.0398 -0.1307829
      CHANNELS 3 Zrotation Xrotation Yrotation
      JOINT left_tibia_foot
      {
        OFFSET -4.370144 -48.10324 -4.275266
        CHANNELS 3 Zrotation Xrotation Yrotation
        End Site
        {
          OFFSET 0 -5 15
        }
      }
    }
  }
  JOINT pelvis_spine1
  {
    OFFSET 0 6.468898 -3.129235
    CHANNELS 3 Zrotation Xrotation Yrotation
    JOINT spine1
    {
      OFFSET 0 23.15396 4.99043
      CHANNELS 3 Zrotation Xrotation Yrotation
      JOINT spine2
      {
        OFFSET 0 20.79997 -5.064912
        CHANNELS 3 Zrotation Xrotation Yrotation
        JOINT neck
        {
          OFFSET 0 14.38658 9.616178
          CHANNELS 3 Zrotation Xrotation Yrotation
          End Site
          {
            OFFSET 0 20 0
          }
        }
      }
      JOINT right_manubrium
      {
        OFFSET -5.722621 16.35077 3.967754
        CHANNELS 3 Zrotation Xrotation Yrotation
        JOINT right_clavicle
        {
          OFFSET -13.16364 1.694482 -4.693211
          CHANNELS 3 Zrotation Xrotation Yrotation
          JOINT right_humerus
          {
            OFFSET -28.5034 -0.3100689 -2.792744
            CHANNELS 3 Zrotation Xrotation Yrotation
            JOINT right_radius
            {
              OFFSET -25.15693 0.02248979 -1.271978
              CHANNELS 3 Zrotation Xrotation Yrotation
              End Site
              {
                OFFSET -15 0 0
              }
            }
          }
        }
      }
      JOINT left_manubrium
      {
        OFFSET 5.722621 16.35077 3.967754
        CHANNELS 3 Zrotation Xrotation Yrotation
        JOINT left_clavicle
        {
          OFFSET 13.16364 1.694482 -4.693211
          CHANNELS 3 Zrotation Xrotation Yrotation
          JOINT left_humerus
          {
            OFFSET 29.39168 -1.063119 -2.237045
            CHANNELS 3 Zrotation Xrotation Yrotation
            JOINT left_radius
            {
              OFFSET 24.59957 -0.9528479 0.9047498
              CHANNELS 3 Zrotation Xrotation Yrotation
              End Site
              {
                OFFSET 15 -0 -0
              }
            }
          }
        }
      }
    }
  }
}
MOTION
Frames: 7
Frame Time: 0.0416666666667
-633.9763 112.5215 2845.925 -2.613504 0.1166013 -22.76396 8.496526 -13.39318 3.507345 -0 12.27678 -0 -3.936863 -1.775259 -2.638821 -1.808229 2.368751 -6.868343 -0 58.37766 -0 -13.45422 -2.907356 6.284241 1.050747 -2.593176 3.305195 1.694065 13.71642 -8.53688 1.32847 23.08292 5.474423 1.599707 -22.51647 7.303785 -6.544648 -20.31879 12.13112 100.8705 14.67382 -26.41279 -0 0 2.943883 -21.58985 8.470875 7.807459 4.719975 -28.85594 -9.177691 -83.11806 13.51698 9.970518 0 0 -35.98681 12.88223 15.4856 -3.253021
-636.2141 114.2911 2851.524 -1.82897 -0.9093133 -23.69081 6.888846 -7.910375 3.580502 -0 10.93133 -0 -4.085981 -5.801653 -2.012116 -2.220284 -5.440229 -6.635021 -0 64.79755 -0 -12.09613 -2.51071 7.919057 1.299867 -2.614057 3.952609 1.114655 14.72444 -8.186265 1.511586 22.77189 4.896544 1.369443 -21.88759 6.95381 -6.34474 -21.5621 12.07886 100.5529 14.15765 -24.93494 -0 0 5.566358 -22.3419 9.72258 8.647735 4.057542 -28.2619 -9.412473 -84.60119 14.28897 13.50061 0 0 -32.14622 10.68454 15.31833 -0.1857575
-638.3594 115.7059 2856.761 -0.9643555 -2.368809 -24.45309 5.267551 -2.008982 2.989522 -0 8.573537 -0 -5.098829 -7.887789 -1.127438 -2.276327 -13.37545 -6.081184 -0 64.92967 -0 -8.698452 -3.599217 10.54019 1.504761 -2.70862 4.749645 0.5030914 15.70287 -7.693899 1.701664 22.32695 4.222093 1.046078 -21.27434 6.592543 -6.111811 -23.23021 11.98348 99.81257 13.80914 -22.83275 -0 0 9.08544 -23.07566 11.18694 9.814776 3.329393 -27.35808 -9.546716 -86.4643 14.97968 17.88232 0 0 -27.87198 8.368084 14.92924 3.106082
-640.3928 116.3841 2861.705 -0.4675545 -3.359914 -24.87375 4.408836 3.728708 2.531253 -0 6.579499 -0 -5.735698 -9.32586 -0.2491939 -0.9921734 -20.66866 -4.807712 -0 56.09115 -0 -5.263331 -4.577612 13.24354 1.639084 -2.899459 5.645709 -0.06006022 16.50595 -7.087351 1.872536 21.71346 3.498041 0.632952 -20.77785 6.253145 -5.855155 -25.28477 11.83642 98.54506 13.70608 -20.09546 -0 0 13.44847 -23.71834 12.80308 11.32067 2.618248 -26.14373 -9.494075 -88.62229 15.4201 22.89511 0 0 -23.49109 6.165292 14.29639 6.302175
-642.2853 116.1351 2866.535 -0.5881527 -3.110066 -25.07661 4.580887 8.272819 2.343601 -0 5.474705 -0 -5.448487 -11.81227 0.5771773 1.860577 -26.29504 -2.564732 -0 39.87666 -0 -3.375798 -4.807289 15.10512 1.69212 -3.183234 6.557552 -0.5006808 17.01831 -6.424225 1.998542 20.93463 2.793564 0.1618518 -20.48024 5.964501 -5.584482 -27.57944 11.63672 96.75584 13.84291 -16.8442 -0 0 18.39143 -24.24474 14.47182 13.11224 2.010311 -24.68844 -9.199537 -90.90919 15.50634 28.13919 0 0 -19.31438 4.265907 13.45457 9.11766
-644.1026 115.1347 2871.526 -1.141895 -1.886123 -25.31821 5.23662 11.38126 2.167972 -0 5.046717 -0 -4.651237 -15.45303 1.34747 4.898797 -29.48814 -0.2119054 -0 23.334 -0 -3.014136 -4.646862 16.04377 1.674066 -3.522269 7.374394 -0.7725763 17.20228 -5.788089 2.065597 20.07394 2.192912 -0.302043 -20.41154 5.748728 -5.322826 -29.83575 11.40549 94.65071 14.11145 -13.42406 -0 0 23.34715 -24.66883 16.0255 15.0088 1.573251 -23.166 -8.693102 -93.07037 15.25191 33.01462 0 0 -15.65584 2.808448 12.52821 11.31224
-645.9538 113.7731 2876.927 -1.644989 -1.017457 -25.78377 5.377921 14.05636 1.978099 -0 5.472091 -0 -3.970663 -18.06044 1.788734 6.088468 -30.34028 0.642975 -0 13.24611 -0 -3.010081 -4.599463 16.75493 1.620859 -3.85041 7.990167 -0.8821721 17.14735 -5.271083 2.083377 19.29174 1.760822 -0.6795166 -20.51398 5.611374 -5.098855 -31.70462 11.19411 92.64794 14.34315 -10.39973 -0 0 27.5378 -25.01258 17.27461 16.70442 1.32503 -21.84077 -8.121384 -94.82667 14.80359 36.87368 0 0 -12.7958 1.84815 11.7223 12.75782
